<svg xmlns="http://www.w3.org/2000/svg" xmlns:xlink="http://www.w3.org/1999/xlink" version="1.1" x="0px" y="0px" viewBox="0 0 100 125" enable-background="new 0 0 100 100" xml:space="preserve"><g><path d="M26.831,71.643c1.815,0,3.459-0.738,4.655-1.933l0.002,0.003c1.192-1.194,1.931-2.839,1.931-4.661   c0-1.813-0.739-3.458-1.933-4.653l0.002-0.003c-1.191-1.191-2.839-1.93-4.657-1.93c-1.817,0-3.469,0.738-4.66,1.93v0.003   c-1.188,1.195-1.928,2.841-1.928,4.653c0,1.815,0.74,3.467,1.928,4.655C23.366,70.902,25.017,71.643,26.831,71.643z M23.767,61.991   l0.004,0.004c0.783-0.78,1.865-1.269,3.061-1.269c1.195,0,2.277,0.488,3.058,1.269h0.003c0.781,0.78,1.265,1.859,1.265,3.057   c0,1.196-0.484,2.278-1.268,3.063v0.006c-0.781,0.777-1.86,1.259-3.058,1.259s-2.28-0.481-3.061-1.259   c-0.781-0.784-1.266-1.869-1.266-3.068C22.504,63.857,22.987,62.775,23.767,61.991z"/><path d="M73.172,58.466c-1.821,0-3.466,0.738-4.658,1.93v0.003c-1.191,1.195-1.93,2.841-1.93,4.653c0,1.815,0.738,3.467,1.93,4.658   v0.003c1.192,1.191,2.837,1.93,4.658,1.93c1.817,0,3.465-0.738,4.657-1.93c1.191-1.194,1.93-2.839,1.93-4.661   c0-1.817-0.738-3.464-1.93-4.656C76.637,59.204,74.989,58.466,73.172,58.466z M76.229,68.114c-0.781,0.783-1.862,1.265-3.058,1.265   s-2.277-0.481-3.062-1.265h-0.004c-0.779-0.778-1.262-1.863-1.262-3.063c0-1.197,0.482-2.276,1.262-3.057h0.004   c0.784-0.78,1.866-1.269,3.062-1.269s2.276,0.488,3.058,1.269c0.784,0.78,1.269,1.866,1.269,3.057   C77.498,66.248,77.014,67.33,76.229,68.114z"/><path d="M21.416,55.754c0.584,0.585,1.391,0.944,2.281,0.944c0.89,0,1.695-0.359,2.277-0.944c0.585-0.584,0.947-1.39,0.947-2.273   c0-0.893-0.362-1.695-0.947-2.28c-0.582-0.585-1.387-0.944-2.277-0.944c-0.89,0-1.696,0.359-2.281,0.944s-0.944,1.388-0.944,2.28   c0,0.884,0.363,1.689,0.947,2.273H21.416z M23.016,52.8c0.173-0.174,0.415-0.282,0.681-0.282c0.262,0,0.504,0.108,0.68,0.282   c0.174,0.173,0.279,0.411,0.279,0.681c0,0.267-0.105,0.508-0.276,0.678h-0.003c-0.176,0.174-0.418,0.279-0.68,0.279   c-0.267,0-0.508-0.105-0.681-0.279h-0.006c-0.17-0.17-0.277-0.411-0.277-0.678C22.732,53.211,22.842,52.973,23.016,52.8z"/><path d="M74.029,55.754c0.585,0.585,1.391,0.944,2.274,0.944c0.89,0,1.693-0.359,2.276-0.94h0.003   c0.586-0.582,0.944-1.391,0.944-2.277s-0.358-1.695-0.944-2.28c-0.581-0.585-1.387-0.944-2.279-0.944   c-0.887,0-1.692,0.359-2.277,0.944v0.004c-0.582,0.581-0.944,1.386-0.944,2.276c0,0.887,0.362,1.695,0.944,2.273H74.029z    M75.623,52.794l0.002,0.006c0.174-0.174,0.414-0.282,0.679-0.282c0.266,0,0.507,0.108,0.68,0.282h0.007   c0.171,0.167,0.276,0.411,0.276,0.681c0,0.264-0.109,0.504-0.283,0.678l0.004,0.004c-0.173,0.17-0.415,0.275-0.684,0.275   c-0.268,0-0.508-0.103-0.679-0.275v-0.004c-0.173-0.174-0.282-0.414-0.282-0.678C75.343,53.211,75.452,52.967,75.623,52.794z"/><path d="M17.809,39.091c0.501,0.502,1.176,0.861,1.889,1.009c0.248,0.052,0.492,0.078,0.72,0.078h25.101   c0.957,0,1.827-0.392,2.457-1.022c0.626-0.629,1.021-1.5,1.021-2.454V20.234c0-0.957-0.392-1.828-1.021-2.457   c-0.63-0.629-1.5-1.021-2.457-1.021H23.825c-0.932,0-1.696,0.366-2.284,0.956c-0.594,0.595-0.986,1.42-1.166,2.294l-3.408,16.47   c-0.041,0.198-0.061,0.379-0.061,0.546c0,0.806,0.35,1.521,0.898,2.071L17.809,39.091z M19.177,36.927l3.405-16.468   c0.096-0.465,0.286-0.883,0.556-1.156c0.177-0.176,0.407-0.286,0.688-0.286h21.692c0.334,0,0.636,0.139,0.858,0.359   c0.218,0.219,0.356,0.527,0.356,0.858v16.467c0,0.334-0.135,0.64-0.353,0.861l-0.003-0.003c-0.222,0.222-0.527,0.357-0.858,0.357   H35.382l-1.228-9.057l-0.064-0.473l-0.376-0.282l-7.342-5.483l-1.349,1.812l6.963,5.2l1.125,8.284H20.417   c-0.1,0-0.189-0.007-0.267-0.022c-0.286-0.057-0.552-0.203-0.746-0.396c-0.144-0.147-0.234-0.314-0.234-0.474   C19.171,36.984,19.171,36.946,19.177,36.927z"/><path d="M52.024,17.778c-0.626,0.629-1.019,1.502-1.019,2.457v16.467c0,0.958,0.393,1.829,1.019,2.458   c0.63,0.629,1.5,1.019,2.457,1.019h25.102c0.23,0,0.472-0.026,0.718-0.078c0.721-0.148,1.398-0.507,1.893-1.005v-0.003   c0.549-0.548,0.9-1.265,0.9-2.067c0-0.167-0.02-0.348-0.061-0.546l-3.405-16.47c-0.184-0.874-0.576-1.699-1.167-2.294   c-0.59-0.59-1.354-0.956-2.283-0.956H54.481C53.524,16.756,52.654,17.148,52.024,17.778z M76.862,19.303   c0.272,0.273,0.459,0.691,0.556,1.156l3.408,16.468c0.003,0.02,0.006,0.058,0.006,0.097c0,0.163-0.094,0.331-0.235,0.474h-0.003   c-0.195,0.193-0.462,0.339-0.741,0.396c-0.077,0.015-0.168,0.022-0.27,0.022H68.127l-1.229-9.057l-0.064-0.473l-0.378-0.282   l-7.341-5.483l-1.351,1.812l6.963,5.2l1.126,8.284H54.481c-0.33,0-0.636-0.135-0.854-0.357c-0.22-0.221-0.358-0.523-0.358-0.858   V20.234c0-0.331,0.139-0.639,0.358-0.858c0.219-0.221,0.524-0.359,0.854-0.359h21.696C76.458,19.017,76.686,19.126,76.862,19.303z"/><path d="M45.344,44.866h-0.003c-1.192,1.194-1.93,2.839-1.93,4.651c0,1.82,0.738,3.468,1.93,4.664l0.003-0.006   c1.195,1.194,2.842,1.932,4.654,1.932c1.82,0,3.469-0.737,4.66-1.926c1.192-1.195,1.931-2.84,1.931-4.664   c0-1.812-0.738-3.462-1.937-4.658c-1.192-1.188-2.836-1.927-4.654-1.927c-1.812,0-3.457,0.738-4.651,1.93L45.344,44.866z    M46.937,46.459l0.003-0.003c0.782-0.78,1.863-1.262,3.058-1.262c1.199,0,2.284,0.485,3.067,1.266   c0.777,0.78,1.262,1.863,1.262,3.058c0,1.198-0.484,2.28-1.269,3.064c-0.783,0.783-1.865,1.266-3.061,1.266   c-1.195,0-2.276-0.482-3.058-1.262v-0.004c-0.78-0.784-1.265-1.869-1.265-3.064S46.156,47.243,46.937,46.459z"/><path d="M95,32.1c0-0.875-0.357-1.667-0.932-2.246c-0.575-0.571-1.371-0.931-2.245-0.931h-2.914c-0.869,0-1.663,0.36-2.241,0.934   l-0.004-0.002c-0.028,0.029-0.04,0.07-0.068,0.102c-0.673-2.854-1.405-5.442-2.173-7.666c-1.468-4.25-3.051-7.317-4.467-9.035   c-1.719-2.081-5.631-3.636-10.696-4.683C63.804,7.448,56.917,6.87,50.001,6.848C43.086,6.87,36.2,7.448,30.743,8.572   c-5.068,1.047-8.983,2.602-10.698,4.68v0.003c-1.417,1.718-2.997,4.786-4.468,9.039c-0.768,2.22-1.5,4.809-2.173,7.662   c-0.029-0.031-0.04-0.073-0.069-0.102c-0.575-0.571-1.372-0.931-2.245-0.931H8.176c-0.87,0-1.664,0.36-2.238,0.934l-0.003-0.002   C5.359,30.433,5,31.223,5,32.1v5.79c0,0.874,0.359,1.664,0.935,2.243l0.003,0.003c0.574,0.575,1.368,0.932,2.238,0.932h2.914   c0.379,0,0.732-0.095,1.069-0.217v32.923c-0.718,0.141-1.384,0.429-1.882,0.924c-0.658,0.661-1.066,1.567-1.066,2.57v2.055   c0,1.002,0.408,1.914,1.066,2.57c0.658,0.654,1.567,1.066,2.57,1.066h2.935h1.08v7.316c0,0.791,0.324,1.517,0.848,2.036   c0.52,0.519,1.243,0.842,2.037,0.842h9.234c0.79,0,1.509-0.323,2.033-0.842l0.004-0.007c0.522-0.521,0.847-1.246,0.847-2.029   v-7.316h18.138h18.137v7.316c0,0.791,0.324,1.517,0.846,2.036c0.523,0.519,1.245,0.842,2.038,0.842h9.233   c0.791,0,1.511-0.323,2.033-0.842l0.005-0.007c0.523-0.521,0.848-1.246,0.848-2.029v-7.316h1.079h2.937   c1.001,0,1.91-0.412,2.563-1.066c0.661-0.656,1.071-1.568,1.071-2.57v-2.055c0-1.003-0.41-1.909-1.071-2.57   c-0.494-0.498-1.163-0.783-1.88-0.928V40.85c0.336,0.123,0.69,0.217,1.068,0.217h2.914c0.874,0,1.67-0.357,2.245-0.935h-0.004   C94.64,39.554,95,38.764,95,37.89V32.1z M17.707,23.025c1.377-3.981,2.817-6.809,4.076-8.334l0.003,0.003   c0.204-0.248,0.468-0.485,0.763-0.717h25.928v-2.264H27.483c1.128-0.34,2.364-0.653,3.713-0.932   c5.312-1.098,12.042-1.658,18.806-1.683c6.764,0.025,13.49,0.587,18.805,1.683c4.587,0.944,8.043,2.255,9.408,3.906   c1.262,1.529,2.704,4.352,4.079,8.337c1.213,3.507,2.363,7.915,3.286,13.118V73.63H53.396c0.188-0.317,0.372-0.661,0.576-1.06   h0.003l0.135-0.259l0.867-1.68c8.11-15.726,12.343-23.928,30.597-23.928v-2.265c-19.628,0-24.076,8.624-32.604,25.159l-0.867,1.683   l-0.136,0.257v0.007c-0.539,1.052-0.836,1.63-1.965,1.713c-1.134-0.09-1.43-0.661-1.969-1.713v-0.003l-0.135-0.261l-0.871-1.686   C38.502,53.063,34.054,44.439,14.43,44.439v2.265c18.253,0,22.483,8.203,30.592,23.922l0.871,1.686l0.135,0.265V72.57   c0.205,0.398,0.389,0.742,0.576,1.06H14.421V36.143C15.342,30.94,16.492,26.536,17.707,23.025z M12.005,37.89   c0,0.251-0.103,0.482-0.264,0.646l-0.006,0.003c-0.163,0.164-0.395,0.263-0.645,0.263H8.176c-0.25,0-0.479-0.1-0.646-0.263   l-0.003-0.003c-0.164-0.164-0.264-0.395-0.264-0.646V32.1c0-0.251,0.104-0.479,0.271-0.646V31.45   c0.16-0.164,0.391-0.267,0.642-0.267h2.914c0.25,0,0.479,0.103,0.645,0.27c0.168,0.167,0.271,0.396,0.271,0.646V37.89z    M29.603,90.274c0,0.166-0.071,0.326-0.179,0.437h-0.006c-0.109,0.109-0.264,0.18-0.437,0.18h-9.234c-0.17,0-0.325-0.07-0.437-0.18   c-0.116-0.116-0.187-0.271-0.187-0.437v-2.769h10.48V90.274z M29.603,85.245h-10.48v-2.287h10.48V85.245z M80.88,90.274   c0,0.166-0.07,0.326-0.179,0.437h-0.008c-0.109,0.109-0.263,0.18-0.438,0.18h-9.233c-0.17,0-0.323-0.07-0.437-0.18   C70.47,90.595,70.4,90.44,70.4,90.274v-2.769H80.88V90.274z M80.88,85.245H70.4v-2.287H80.88V85.245z M88.527,77.267v2.055   c0,0.379-0.153,0.72-0.405,0.971c-0.246,0.25-0.592,0.404-0.965,0.404h-74.31c-0.376,0-0.72-0.154-0.971-0.404   c-0.247-0.251-0.405-0.592-0.405-0.971v-2.055c0-0.374,0.158-0.72,0.405-0.97c0.25-0.251,0.595-0.405,0.971-0.405h74.31   c0.373,0,0.719,0.154,0.965,0.405C88.374,76.547,88.527,76.893,88.527,77.267z M92.739,37.89c0,0.254-0.103,0.482-0.268,0.646   h-0.003c-0.168,0.163-0.395,0.267-0.646,0.267h-2.914c-0.249,0-0.478-0.1-0.646-0.263l-0.003-0.003   c-0.164-0.164-0.266-0.395-0.266-0.646V32.1c0-0.251,0.104-0.479,0.269-0.646V31.45c0.164-0.164,0.394-0.267,0.646-0.267h2.914   c0.251,0,0.478,0.103,0.646,0.27c0.164,0.167,0.271,0.398,0.271,0.646V37.89z"/><rect x="50.271" y="11.681" width="5.57" height="2.332"/></g><text x="0" y="115" fill="#000000" font-size="5px" font-weight="bold" font-family="'Helvetica Neue', Helvetica, Arial-Unicode, Arial, Sans-serif">Created by Andy Selimov</text><text x="0" y="120" fill="#000000" font-size="5px" font-weight="bold" font-family="'Helvetica Neue', Helvetica, Arial-Unicode, Arial, Sans-serif">from the Noun Project</text></svg>